<svg xmlns:xlink="http://www.w3.org/1999/xlink" xmlns="http://www.w3.org/2000/svg" viewBox="0 0 100 155.33745857823766" preserveAspectRatio="xMidYMid meet" class="css-88gl6m" id="ehhacacf" width="100"  height="155.33745857823766" ><defs id="SvgjsDefs1205"></defs><g id="SvgjsG1206" featurekey="ECw45b-0" transform="matrix(0.7854225356860095,0,0,0.7854225356860095,11.225260234283887,5.414703752002739)" fill="#111111"><path xmlns="http://www.w3.org/2000/svg" d="M45.648,87.014c0.417-0.184,0.606-0.672,0.421-1.09c-0.369-0.834-0.391-1.766-0.063-2.621  c0.681-1.761,2.669-2.641,4.428-1.959c0.853,0.329,1.526,0.971,1.895,1.808c0.371,0.837,0.394,1.766,0.063,2.623  c-0.3,0.778-0.873,1.419-1.617,1.8c-0.406,0.209-0.564,0.708-0.354,1.114c0.145,0.284,0.434,0.448,0.733,0.448  c0.128,0,0.258-0.029,0.379-0.093c1.104-0.568,1.956-1.519,2.401-2.677c0.49-1.264,0.457-2.644-0.093-3.884  c-0.55-1.24-1.548-2.192-2.811-2.68c-2.61-1.009-5.556,0.294-6.566,2.906c-0.486,1.269-0.452,2.647,0.095,3.885  C44.742,87.01,45.23,87.197,45.648,87.014z" fill="#111111"></path><path xmlns="http://www.w3.org/2000/svg" d="M53.553,15.543h-8.71c-0.484,0-0.878-0.393-0.878-0.878c0-0.486,0.394-0.879,0.878-0.879h8.71  c0.485,0,0.879,0.393,0.879,0.879C54.432,15.15,54.038,15.543,53.553,15.543z" fill="#111111"></path><path xmlns="http://www.w3.org/2000/svg" d="M41.769,15.543h0.075c-0.485,0-0.879-0.393-0.879-0.878c0-0.486,0.394-0.879,0.879-0.879h-0.075  c0.485,0,0.879,0.393,0.879,0.879C42.647,15.15,42.254,15.543,41.769,15.543z" fill="#111111"></path><path xmlns="http://www.w3.org/2000/svg" d="M69.578,21.367H29.174c-0.484,0-0.878-0.393-0.878-0.879c0-0.485,0.394-0.878,0.878-0.878h40.405  c0.486,0,0.88,0.392,0.88,0.878C70.458,20.974,70.065,21.367,69.578,21.367z" fill="#111111"></path><path xmlns="http://www.w3.org/2000/svg" d="M69.578,76.998H29.174c-0.484,0-0.878-0.393-0.878-0.88c0-0.484,0.394-0.878,0.878-0.878h40.405  c0.486,0,0.88,0.393,0.88,0.878C70.458,76.604,70.065,76.998,69.578,76.998z" fill="#111111"></path><path xmlns="http://www.w3.org/2000/svg" d="M67.197,95.15H31.539c-4.21,0-7.635-3.425-7.635-7.635V13.473c0-4.21,3.425-7.635,7.635-7.635h35.658  c4.21,0,7.635,3.425,7.635,7.635v74.042C74.832,91.725,71.407,95.15,67.197,95.15z M31.539,8.472c-2.757,0-5.001,2.244-5.001,5.001  v74.042c0,2.757,2.244,5.001,5.001,5.001h35.658c2.757,0,5-2.244,5-5.001V13.473c0-2.757-2.243-5.001-5-5.001H31.539z" fill="#111111"></path></g><g id="SvgjsG1207" featurekey="6sJQsk-0" transform="matrix(3.7747243624976043,0,0,3.7747243624976043,-3.850220577679241,79.8429731282144)" fill="#111111"><path d="M12.38 20 l-2.32 0 l-3.06 -6.2 l-2.62 0 l0 6.2 l-2.14 0 l0 -6.2 l-1.22 -1.08 l1.22 -1.06 l0 -6.32 l7.08 0 l2.38 2.76 l0 2.94 l-2.38 2.76 z M9.56 10.12 l0 -1.12 l-1.26 -1.5 l-3.92 0 l0 4.16 l3.92 0 z M27.512 11.04 l-2.38 2.76 l-4.96 0 l0 6.2 l-2.14 0 l0 -6.22 l-1.22 -1.06 l1.22 -1.08 l0 -6.3 l7.1 0 l2.38 2.74 l0 2.96 z M25.372 10.12 l0 -1.12 l-1.26 -1.52 l-3.94 0 l0 4.16 l3.94 0 z" fill="#111111"></path></g></svg>